<svg width="12" height="12" viewBox="0 0 12 12" fill="none" xmlns="http://www.w3.org/2000/svg">
<path d="M1.57882 11.0044C1.49788 11.0042 1.41787 10.9873 1.34385 10.9545C1.26984 10.9218 1.20345 10.874 1.1489 10.8142C1.09336 10.7549 1.05099 10.6846 1.02455 10.6078C0.998109 10.531 0.988204 10.4495 0.995482 10.3685L1.1384 8.79705L7.74057 2.19722L9.80382 4.25988L3.2034 10.8591L1.6319 11.002C1.61425 11.0037 1.59654 11.0045 1.57882 11.0044ZM10.2156 3.84747L8.15298 1.7848L9.39023 0.547549C9.44441 0.493313 9.50874 0.450286 9.57956 0.420931C9.65037 0.391575 9.72628 0.376465 9.80294 0.376465C9.8796 0.376465 9.95551 0.391575 10.0263 0.420931C10.0971 0.450286 10.1615 0.493313 10.2156 0.547549L11.4529 1.7848C11.5071 1.83897 11.5502 1.90331 11.5795 1.97413C11.6089 2.04494 11.624 2.12085 11.624 2.19751C11.624 2.27417 11.6089 2.35007 11.5795 2.42089C11.5502 2.4917 11.5071 2.55604 11.4529 2.61022L10.2162 3.84688L10.2156 3.84747Z" fill="black"/>
</svg>
