<svg width="11" height="12" viewBox="0 0 11 12" fill="none" xmlns="http://www.w3.org/2000/svg">
<path d="M10.5417 2.0625H8.70833V0.916667C8.70833 0.411068 8.29727 0 7.79167 0H3.20833C2.70273 0 2.29167 0.411068 2.29167 0.916667V2.0625H0.458333C0.204818 2.0625 0 2.26732 0 2.52083V2.97917C0 3.04219 0.0515625 3.09375 0.114583 3.09375H0.979687L1.33346 10.5846C1.35638 11.073 1.76029 11.4583 2.2487 11.4583H8.7513C9.24115 11.4583 9.64362 11.0745 9.66654 10.5846L10.0203 3.09375H10.8854C10.9484 3.09375 11 3.04219 11 2.97917V2.52083C11 2.26732 10.7952 2.0625 10.5417 2.0625ZM7.67708 2.0625H3.32292V1.03125H7.67708V2.0625Z" fill="black"/>
</svg>
