<svg width="14" height="13" viewBox="0 0 14 13" fill="none" xmlns="http://www.w3.org/2000/svg">
<path d="M9.33333 2.93521C9.33333 2.78351 9.27257 2.63663 9.16319 2.52828L6.78368 0.168552C6.67431 0.0601971 6.52604 0 6.37049 0H6.22222V3.08209H9.33333V2.93521ZM13.8785 7.41628L11.5524 5.09508C11.3069 4.85188 10.8865 5.02284 10.8865 5.36717V6.9347H9.3309V8.47575H10.8865V10.0457C10.8865 10.39 11.3069 10.561 11.5524 10.3178L13.8785 7.99417C14.0389 7.83525 14.0389 7.5752 13.8785 7.41628ZM4.66667 8.09049V7.31996C4.66667 7.10807 4.84167 6.9347 5.05556 6.9347H9.33333V3.85261H6.02778C5.70694 3.85261 5.44444 3.59256 5.44444 3.27472V0H0.583333C0.260069 0 0 0.257643 0 0.577892V11.7505C0 12.0707 0.260069 12.3284 0.583333 12.3284H8.75C9.07326 12.3284 9.33333 12.0707 9.33333 11.7505V8.47575H5.05556C4.84167 8.47575 4.66667 8.30238 4.66667 8.09049Z" fill="white"/>
</svg>
